<?xml version="1.0" encoding="utf-8"?><svg xmlns="http://www.w3.org/2000/svg" xmlns:xlink="http://www.w3.org/1999/xlink"><symbol viewBox="0 0 89 22" id="arr-long-next" xmlns="http://www.w3.org/2000/svg"><path d="M79.092 21.23c-.348.342-1.043.342-1.565 0-.347-.341-.347-1.024 0-1.536l7.823-7.683H1.043C.521 12.18 0 11.669 0 11.157s.521-1.024 1.043-1.024H85.35L77.527 2.45c-.347-.342-.347-1.025 0-1.537.348-.341 1.043-.341 1.565 0l9.56 9.39c.348.342.348 1.025 0 1.537l-9.56 9.39z" fill-opacity=".3"/></symbol><symbol viewBox="0 0 89 22" id="arr-long-prev" xmlns="http://www.w3.org/2000/svg"><path d="M9.908 21.23c.348.342 1.043.342 1.565 0 .347-.341.347-1.024 0-1.536L3.65 12.01h84.307c.522.17 1.043-.342 1.043-.854s-.522-1.024-1.043-1.024H3.65l7.823-7.683c.347-.342.347-1.025 0-1.537-.348-.341-1.043-.341-1.565 0l-9.56 9.39C0 10.645 0 11.328.348 11.84l9.56 9.39z" fill-opacity=".3"/></symbol><symbol viewBox="0 0 32 122" id="arr-next" xmlns="http://www.w3.org/2000/svg"><path d="M1 .646L31.217 60.28 1 121.128"/></symbol><symbol viewBox="0 0 33 123" id="arr-prev" xmlns="http://www.w3.org/2000/svg"><path d="M31.533 121.913L1.317 62.281 31.533 1.432"/></symbol><symbol viewBox="0 0 16 14" id="calendar" xmlns="http://www.w3.org/2000/svg"><path d="M6.69 6.078H4.368c-.18 0-.33.171-.33.386V9.17c0 .211.146.386.33.386H6.69c.181 0 .331-.17.331-.386V6.464c0-.215-.15-.386-.33-.386zm-.33 2.706H4.7V6.847h1.66v1.937z"/><path d="M14.894.921h-2.428V.43c0-.237-.162-.43-.365-.43-.203 0-.369.193-.369.43v.495h-2V.43c0-.237-.165-.43-.368-.43-.2 0-.366.193-.366.43v.495h-2V.43c0-.237-.165-.43-.368-.43-.203 0-.369.193-.369.43v.495h-2V.43c0-.237-.165-.43-.368-.43-.2 0-.362.193-.362.43v.495H1.103C.493.92 0 1.5 0 2.206v10.509C0 13.42.494 14 1.103 14h13.794c.606 0 1.103-.575 1.103-1.285V2.207C15.997 1.5 15.503.92 14.894.92zm.369 11.794c0 .236-.166.43-.369.43H1.103c-.203 0-.369-.194-.369-.43V2.207c0-.237.166-.43.369-.43H3.53v.495c0 .237.165.43.368.43.203 0 .369-.193.369-.43v-.495h2v.495c0 .237.165.43.368.43.203 0 .363-.193.363-.43v-.495h2v.495c0 .237.165.43.368.43.203 0 .369-.193.369-.43v-.495h2v.495c0 .237.165.43.368.43.203 0 .369-.193.369-.43v-.495H14.9c.203 0 .369.193.369.43l-.006 10.508z"/></symbol><symbol viewBox="0 0 344.96 344.96" id="check" xmlns="http://www.w3.org/2000/svg"><g data-name="Слой 2"><path d="M321.85 86.24l-40-23.11-23.1-40H212.5L172.48 0l-40 23.11H86.24l-23.11 40-40 23.1v46.21L0 172.48l23.11 40v46.21l40 23.11 23.11 40h46.21l40 23.1 40-23.11h46.21l23.11-40 40-23.11V212.5l23.11-40-23.11-40V86.24zM156.91 243.07a16.79 16.79 0 0 1-23.34 0l-50.45-50.44a16.19 16.19 0 0 1 0-22.89l13.35-13.35a16.19 16.19 0 0 1 22.89 0l25.87 25.87 80.34-80.35a16.19 16.19 0 0 1 22.89 0l13.35 13.35a16.19 16.19 0 0 1 0 22.89z" data-name="Capa 1"/></g></symbol><symbol viewBox="0 0 6 12" id="chevron-right" xmlns="http://www.w3.org/2000/svg"><g clip-path="url(#gclip0)"><path d="M5.038 6.064l-4.906 5.22a.428.428 0 0 0 0 .588.369.369 0 0 0 .553 0l5.207-5.514a.428.428 0 0 0 0-.588L.698.243a.416.416 0 0 0-.29-.115.339.339 0 0 0-.276.128.428.428 0 0 0 0 .588l4.906 5.22z"/></g><defs><clipPath id="gclip0"><path d="M0 0h6v12H0z"/></clipPath></defs></symbol><symbol viewBox="0 0 20 25" id="doc" xmlns="http://www.w3.org/2000/svg"><g clip-path="url(#hclip0)"><path d="M13.587 4.372H1.976C.882 4.372 0 5.262 0 6.35v16.68c0 1.087.882 1.977 1.976 1.977h11.611a1.978 1.978 0 0 0 1.976-1.978V6.35a1.99 1.99 0 0 0-1.976-1.977zm.588 18.65a.598.598 0 0 1-.594.596H1.969a.598.598 0 0 1-.594-.595V6.35c0-.327.268-.595.594-.595h11.612c.326 0 .594.268.594.595v16.673z"/><path d="M18.023 0H6.413a1.978 1.978 0 0 0-1.976 1.978c0 .384.306.691.69.691.384 0 .69-.307.69-.691a.6.6 0 0 1 .595-.596h11.611c.327 0 .595.27.595.596v16.68a.598.598 0 0 1-.595.594.688.688 0 0 0-.69.692c0 .384.307.69.69.69A1.978 1.978 0 0 0 20 18.658V1.977A1.974 1.974 0 0 0 18.023 0zM3 10.5h9m-9 3h9m-9 3h9m-9 3h9"/></g><defs><clipPath id="hclip0"><path d="M0 0h20v25H0z"/></clipPath></defs></symbol><symbol viewBox="0 0 25 23" id="download" xmlns="http://www.w3.org/2000/svg"><path d="M24.284 11.202a.71.71 0 0 0-.716.708v6.436c0 1.75-1.446 3.173-3.21 3.173H4.642c-1.77 0-3.21-1.429-3.21-3.172v-6.542a.71.71 0 0 0-.716-.708.71.71 0 0 0-.716.708v6.541c0 2.53 2.082 4.589 4.642 4.589h15.716c2.56 0 4.642-2.058 4.642-4.588V11.91a.713.713 0 0 0-.716-.708z"/><path d="M11.998 17.317c.139.138.325.21.504.21a.697.697 0 0 0 .504-.21l4.549-4.496a.706.706 0 0 0 0-1.003.726.726 0 0 0-1.015 0l-3.329 3.29V.748a.71.71 0 0 0-.716-.708.71.71 0 0 0-.716.707v14.361l-3.329-3.29a.726.726 0 0 0-1.015 0 .706.706 0 0 0 0 1.003l4.563 4.496z"/></symbol><symbol viewBox="0 0 28 23" id="email" xmlns="http://www.w3.org/2000/svg"><path d="M28 18.75c0 .645-.17 1.24-.451 1.762L18.71 10.149l8.743-8.013c.342.565.547 1.232.547 1.948V18.75zm-14-6.717L26.168.875A3.325 3.325 0 0 0 24.5.417h-21a3.33 3.33 0 0 0-1.668.458L14 12.033zm3.39-.673l-2.816 2.585a.843.843 0 0 1-1.148-.007l-2.817-2.586-8.955 10.5c.54.35 1.17.565 1.846.565h21c.684 0 1.313-.208 1.846-.566L17.39 11.36zM.548 2.136A3.759 3.759 0 0 0 0 4.084V18.75c0 .645.17 1.24.451 1.762L9.29 10.149.547 2.136z"/></symbol><symbol viewBox="0 0 9 18" id="fb" xmlns="http://www.w3.org/2000/svg"><path d="M8.654.997H6.49c-2.423 0-3.98 1.636-3.98 4.178v1.923H.346A.346.346 0 0 0 0 7.452v2.786c0 .199.151.353.346.353H2.51v7.052c0 .2.151.354.346.354H5.69a.346.346 0 0 0 .346-.354v-7.052h2.531a.345.345 0 0 0 .346-.353V7.452a.359.359 0 0 0-.108-.243.344.344 0 0 0-.238-.11H6.014V5.462c0-.796.173-1.194 1.19-1.194h1.45A.346.346 0 0 0 9 3.915V1.351a.346.346 0 0 0-.346-.354z"/></symbol><symbol viewBox="0 0 19 20" id="instagram" xmlns="http://www.w3.org/2000/svg"><path d="M13.758 0H5.242C2.347 0 0 2.47 0 5.518v8.964C0 17.53 2.347 20 5.242 20h8.516C16.653 20 19 17.53 19 14.482V5.518C19 2.47 16.653 0 13.758 0zm3.556 14.482c0 2.071-1.603 3.743-3.556 3.743H5.242c-1.968 0-3.556-1.687-3.556-3.743V5.518c0-2.056 1.602-3.743 3.556-3.743h8.516c1.968 0 3.556 1.687 3.556 3.743v8.964z"/><path d="M9.5 4.852C6.802 4.852 4.595 7.16 4.595 10s2.193 5.163 4.905 5.163c2.698 0 4.904-2.308 4.904-5.163 0-2.84-2.206-5.148-4.904-5.148zm0 8.536c-1.77 0-3.218-1.51-3.218-3.373.014-1.879 1.447-3.388 3.218-3.388 1.77 0 3.218 1.51 3.218 3.373 0 1.864-1.447 3.388-3.218 3.388zM4.399 3.343c-.323 0-.647.133-.872.385a1.36 1.36 0 0 0-.365.917c0 .34.127.68.365.917.225.237.549.385.872.385.323 0 .646-.133.871-.385a1.36 1.36 0 0 0 .365-.917c0-.34-.126-.68-.365-.917a1.15 1.15 0 0 0-.871-.385z"/></symbol><symbol viewBox="0 0 19 22" id="instagram-color" xmlns="http://www.w3.org/2000/svg"><g clip-path="url(#mclip0)"><path d="M13.758.436H5.242C2.347.436 0 3.035 0 6.24v9.432c0 3.207 2.347 5.806 5.242 5.806h8.516c2.895 0 5.242-2.6 5.242-5.806V6.241C19 3.035 16.653.436 13.758.436zm3.556 15.237c0 2.18-1.603 3.938-3.556 3.938H5.242c-1.968 0-3.556-1.774-3.556-3.938V6.241c0-2.163 1.602-3.938 3.556-3.938h8.516c1.968 0 3.556 1.775 3.556 3.938v9.432z"/><path d="M9.5 5.54c-2.698 0-4.905 2.428-4.905 5.417 0 2.988 2.193 5.431 4.905 5.431 2.698 0 4.904-2.428 4.904-5.432 0-2.988-2.206-5.416-4.904-5.416zm0 8.98c-1.77 0-3.218-1.587-3.218-3.548.014-1.977 1.447-3.564 3.218-3.564 1.77 0 3.218 1.587 3.218 3.548 0 1.962-1.447 3.565-3.218 3.565zM4.399 3.952c-.323 0-.647.14-.872.405a1.472 1.472 0 0 0-.365.965c0 .358.127.715.365.964a1.2 1.2 0 0 0 .872.405c.323 0 .646-.14.871-.405.225-.249.365-.606.365-.964s-.126-.716-.365-.965a1.125 1.125 0 0 0-.871-.405z"/><g clip-path="url(#mclip1)"><path d="M5.587.353h8.084c3.288 0 5.96 2.81 5.96 6.27v8.506c0 3.456-2.672 6.267-5.96 6.267H5.587c-3.285 0-5.96-2.811-5.96-6.271V6.623c.004-3.46 2.675-6.27 5.96-6.27zM1.642 15.129c0 2.291 1.767 4.151 3.945 4.151h8.084c2.178 0 3.945-1.86 3.945-4.151V6.623c0-2.291-1.767-4.15-3.945-4.15H5.587c-2.178 0-3.945 1.859-3.945 4.15v8.506z"/><path d="M9.63 5.432c2.854 0 5.173 2.44 5.173 5.442 0 3.002-2.32 5.442-5.172 5.442-2.853 0-5.173-2.44-5.173-5.442 0-3.002 2.32-5.442 5.173-5.442zm0 8.768c1.747 0 3.162-1.49 3.162-3.326 0-1.837-1.415-3.327-3.161-3.327s-3.162 1.49-3.162 3.327S7.885 14.2 9.631 14.2zM4.448 6.775c-.684 0-1.238-.583-1.238-1.302 0-.72.554-1.302 1.238-1.302.683 0 1.238.583 1.238 1.302 0 .72-.555 1.302-1.238 1.302z"/></g></g><defs><linearGradient id="mpaint0_linear" x1="9.63" y1="21.336" x2="9.63" y2=".516" gradientUnits="userSpaceOnUse"><stop stop-color="#E09B3D"/><stop offset=".3" stop-color="#C74C4D"/><stop offset=".6" stop-color="#C21975"/><stop offset="1" stop-color="#7024C4"/></linearGradient><linearGradient id="mpaint1_linear" x1="9.63" y1="21.335" x2="9.63" y2=".516" gradientUnits="userSpaceOnUse"><stop stop-color="#E09B3D"/><stop offset=".3" stop-color="#C74C4D"/><stop offset=".6" stop-color="#C21975"/><stop offset="1" stop-color="#7024C4"/></linearGradient><linearGradient id="mpaint2_linear" x1="4.447" y1="21.332" x2="4.447" y2=".516" gradientUnits="userSpaceOnUse"><stop stop-color="#E09B3D"/><stop offset=".3" stop-color="#C74C4D"/><stop offset=".6" stop-color="#C21975"/><stop offset="1" stop-color="#7024C4"/></linearGradient><clipPath id="mclip0"><path transform="matrix(-1 0 0 1 19 .436)" d="M0 0h19v21.043H0z"/></clipPath><clipPath id="mclip1"><path transform="matrix(-1 0 0 1 19.63 .353)" d="M0 0h20v21.043H0z"/></clipPath></defs></symbol><symbol viewBox="0 0 15 15" id="money" xmlns="http://www.w3.org/2000/svg"><path d="M14.96 6.962h-.727V3.665c0-.792-.649-1.434-1.45-1.434h-.982L10.797.446A.864.864 0 0 0 10.036 0a.931.931 0 0 0-.423.106l-3.859 2.12H1.45A1.45 1.45 0 0 0 0 3.665v9.846c0 .792.649 1.433 1.45 1.433h11.333c.801 0 1.45-.641 1.45-1.433v-2.89h.727v-3.66zM12.79 2.8a.87.87 0 0 1 .863.765h-1.089L12.13 2.8h.66zM9.9.608a.296.296 0 0 1 .395.112l1.602 2.845H4.52L9.9.608zm3.757 12.903a.864.864 0 0 1-.868.859H1.449a.864.864 0 0 1-.868-.86V3.666c0-.474.39-.86.869-.86h3.266l-1.393.765H1.63a.287.287 0 0 0-.287.285c0 .156.13.284.287.284h12.027v2.823h-2.12c-.988 0-1.789.792-1.789 1.768v.123c0 .976.801 1.768 1.788 1.768h2.121v2.89zm.723-3.464h-2.85a1.202 1.202 0 0 1-1.207-1.194V8.73c0-.658.542-1.194 1.208-1.194h2.848v2.51zm-1.958-1.233a.64.64 0 0 1-.643.636.64.64 0 0 1-.643-.636.64.64 0 0 1 .643-.636.64.64 0 0 1 .643.636z"/></symbol><symbol viewBox="0 0 8 15" id="pug-left" xmlns="http://www.w3.org/2000/svg"><path d="M6.25 7.609l-5.723 6.09a.5.5 0 0 0 0 .686.43.43 0 0 0 .645 0l6.075-6.433a.5.5 0 0 0 0-.686L1.187.818A.485.485 0 0 0 .85.684a.396.396 0 0 0-.323.149.5.5 0 0 0 0 .686l5.724 6.09z"/></symbol><symbol viewBox="0 0 8 15" id="pug-right" xmlns="http://www.w3.org/2000/svg"><path d="M1.75 7.483l5.723-6.09a.5.5 0 0 0 0-.686.43.43 0 0 0-.645 0L.754 7.14a.5.5 0 0 0 0 .686l6.06 6.448c.098.09.21.134.336.134a.395.395 0 0 0 .323-.15.499.499 0 0 0 0-.686L1.75 7.482z"/></symbol><symbol viewBox="0 0 22 22" id="tel" xmlns="http://www.w3.org/2000/svg"><path d="M21.054 17.161c.045.35-.06.654-.314.915l-2.965 3.017c-.132.154-.31.28-.523.387a2.027 2.027 0 0 1-.638.205c-.014 0-.06.005-.132.01-.073.01-.173.01-.291.01-.283 0-.738-.052-1.371-.15s-1.402-.341-2.318-.733c-.915-.388-1.949-.971-3.11-1.751-1.16-.775-2.395-1.844-3.702-3.198-1.038-1.05-1.903-2.06-2.586-3.016-.683-.962-1.234-1.849-1.648-2.661C1.04 9.379.727 8.64.518 7.978a12.835 12.835 0 0 1-.424-1.709C.021 5.79-.01 5.41.004 5.14c.013-.275.022-.424.022-.457a2.33 2.33 0 0 1 .2-.654c.105-.22.232-.401.378-.537L3.573.452c.21-.215.446-.322.715-.322.191 0 .364.056.514.173.15.112.274.256.378.424l2.386 4.641c.132.243.173.51.11.799-.06.289-.187.532-.378.733L6.205 8.02a.372.372 0 0 0-.078.15.562.562 0 0 0-.031.172c.059.322.19.686.4 1.097.178.364.456.813.824 1.336.374.527.898 1.13 1.585 1.816.67.7 1.261 1.246 1.785 1.634.52.387.956.672 1.302.859.351.182.615.294.802.331l.277.056a.487.487 0 0 0 .146-.032.423.423 0 0 0 .146-.08l1.27-1.326a1.35 1.35 0 0 1 .938-.364c.255 0 .456.047.601.136h.023l4.303 2.605c.31.191.496.443.556.751z"/></symbol><symbol viewBox="0 0 17 18" id="ticket" xmlns="http://www.w3.org/2000/svg"><g clip-path="url(#rclip0)" stroke-width=".2"><path d="M15.035 4.636l-.197.205c-.36.375-.59.477-1.113.477-1.049 0-1.835-.818-1.835-1.909 0-.545.098-.818.459-1.159l.196-.205L10.58 0 0 11.011l1.933 2.012.196-.205c.36-.375.59-.477 1.114-.477 1.048 0 1.834.818 1.834 1.909 0 .546-.098.818-.458 1.16l-.197.204 1.933 2.011 10.58-11.011-1.9-1.978zm-9.86 11.012c.328-.375.426-.75.426-1.364 0-1.398-1.015-2.455-2.358-2.455-.557 0-.917.103-1.31.444L.72 11.01l6.19-6.443.852.887.36-.375-.851-.887L10.58.784l1.212 1.261c-.328.375-.426.75-.426 1.364 0 1.398 1.016 2.455 2.359 2.455.556 0 .917-.103 1.31-.444l1.212 1.262-3.309 3.409-.851-.886-.36.375.851.886-6.19 6.443-1.213-1.261z"/><path d="M9.368 7.125L8.32 6.035l.36-.376L9.728 6.75l-.36.375zm1.835 1.909l-1.049-1.09.36-.376 1.049 1.091-.36.375z"/></g><defs><clipPath id="rclip0"><path d="M0 0h17v18H0z"/></clipPath></defs></symbol><symbol viewBox="0 0 18 16" id="tickets" xmlns="http://www.w3.org/2000/svg"><g clip-path="url(#sclip0)"><path d="M17.7 10.565c.165 0 .3-.136.3-.302V7.848a.302.302 0 0 0-.3-.302h-3.776l1.886-1.898a.304.304 0 0 0 0-.426l-1.639-1.65a.3.3 0 0 0-.423 0 1.197 1.197 0 0 1-1.7 0 1.215 1.215 0 0 1 0-1.709.304.304 0 0 0 0-.426L10.715.086a.3.3 0 0 0-.424 0l-7.414 7.46H.3c-.165 0-.3.136-.3.302v2.415c0 .166.135.302.3.302.664 0 1.2.54 1.2 1.208 0 .668-.536 1.207-1.2 1.207-.165 0-.3.136-.3.302v2.415c0 .166.135.302.3.302h17.4c.165 0 .3-.136.3-.302v-2.415a.302.302 0 0 0-.3-.302c-.664 0-1.2-.54-1.2-1.207 0-.668.536-1.208 1.2-1.208zM10.5.727l.934.94a1.82 1.82 0 0 0 .42 2.528 1.793 1.793 0 0 0 2.092 0l1.234 1.242-2.1 2.113h-.953l.687-.69a.304.304 0 0 0 0-.427l-3.3-3.32a.3.3 0 0 0-.424 0L4.676 7.545h-.952L10.5.727zm-4.976 6.82l3.776-3.8 2.876 2.894-.9.905H5.524zm11.876 6.01v1.838H15v-1.207h-.6v1.207H3.6v-.302H3v.302H.6v-1.838a1.811 1.811 0 0 0 1.478-2.086A1.806 1.806 0 0 0 .6 9.984V8.15H3v.906h.6V8.15h13.8v1.838a1.811 1.811 0 0 0 0 3.57z"/><path d="M15 8.755h-.6v1.207h.6V8.755zm0 1.811h-.6v1.208h.6v-1.208zm0 1.811h-.6v1.207h.6v-1.207zM3.6 9.66H3v1.208h.6V9.66zm0 1.812H3v1.207h.6v-1.207zm0 1.811H3v1.208h.6v-1.208zm9.6-3.623c-.33 0-.6-.271-.6-.603a.302.302 0 0 0-.3-.302H5.7c-.165 0-.3.136-.3.302 0 .332-.27.604-.6.604-.165 0-.3.135-.3.301v3.623c0 .166.135.302.3.302.33 0 .6.272.6.604 0 .166.135.302.3.302h6.6c.165 0 .3-.136.3-.302 0-.332.27-.604.6-.604.165 0 .3-.136.3-.302V9.962a.302.302 0 0 0-.3-.301zm-.3 3.66a1.2 1.2 0 0 0-.863.869H5.962a1.2 1.2 0 0 0-.862-.868v-3.094a1.2 1.2 0 0 0 .863-.868h6.074a1.2 1.2 0 0 0 .863.868v3.094z"/></g><defs><clipPath id="sclip0"><path d="M0 0h18v16H0z"/></clipPath></defs></symbol><symbol viewBox="0 0 13 15" id="user" xmlns="http://www.w3.org/2000/svg"><path d="M6.44 8.073h.104c.925-.016 1.676-.333 2.23-.944 1.217-1.342 1.016-3.644.992-3.864C9.686 1.617 8.888.828 8.232.457a3.579 3.579 0 0 0-1.7-.437h-.056c-.351 0-1.04.054-1.7.425-.668.367-1.474 1.157-1.553 2.82-.024.22-.226 2.522.992 3.864.55.611 1.3.928 2.226.944zm-2.375-4.73c0-.009.004-.02.004-.024C4.17 1.099 5.785.863 6.473.863h.04c.853.02 2.304.36 2.403 2.456 0 .008 0 .02.004.023.004.023.225 2.128-.783 3.234-.4.44-.93.657-1.629.661h-.032c-.695-.008-1.23-.224-1.625-.661-1.004-1.103-.79-3.215-.786-3.234z"/><path d="M12.992 11.89v-.008c0-.023-.004-.05-.004-.077-.02-.611-.059-2.046-1.431-2.503a.095.095 0 0 0-.032-.007c-1.427-.356-2.613-1.16-2.625-1.168a.434.434 0 0 0-.593.1.413.413 0 0 0 .103.58 9.98 9.98 0 0 0 2.886 1.292c.736.255.819 1.03.842 1.733 0 .027 0 .054.004.077.004.279-.016.708-.067.956-.514.286-2.523 1.268-5.575 1.268-3.044 0-5.065-.986-5.579-1.272-.051-.248-.07-.677-.067-.956 0-.023.004-.05.004-.077.024-.704.103-1.477.842-1.733 1.574-.394 2.835-1.257 2.887-1.292a.407.407 0 0 0 .102-.58.428.428 0 0 0-.593-.1c-.012.007-1.194.812-2.625 1.168-.012.004-.024.008-.032.008C.067 9.759.024 11.194.01 11.8c0 .027 0 .054-.005.078v.007c-.004.163-.008.987.162 1.4a.38.38 0 0 0 .166.194c.095.062 2.369 1.477 6.176 1.477 3.808 0 6.081-1.42 6.176-1.477a.441.441 0 0 0 .166-.194c.146-.406.146-1.233.142-1.396z"/></symbol><symbol viewBox="0 0 13 16" id="user2" xmlns="http://www.w3.org/2000/svg"><path d="M6.5 7.822c1.899 0 3.443-1.754 3.443-3.914S9.437-.006 6.501-.006c-2.936.005-3.442 1.76-3.442 3.92S4.603 7.822 6.5 7.822zm6.488 5.818c-.061-3.766-.586-4.835-4.608-5.515 0 0-.568.675-1.886.675s-1.886-.675-1.886-.675C.635 8.8.08 9.851.006 13.52c-.006.297-.006.314-.012.28v.394S.952 16 6.494 16s6.5-1.806 6.5-1.806v-.291l-.006-.263z"/></symbol><symbol viewBox="0 0 21 12" id="vk" xmlns="http://www.w3.org/2000/svg"><path fill-rule="evenodd" clip-rule="evenodd" d="M17.778 7.702c.661.66 1.355 1.28 1.942 2.007.262.326.506.652.694 1.029.27.535.024 1.12-.44 1.145h-2.898c-.75.067-1.338-.242-1.844-.769-.4-.418-.775-.861-1.159-1.296a2.865 2.865 0 0 0-.522-.477c-.391-.259-.734-.184-.963.243-.228.426-.285.903-.302 1.388-.032.702-.236.878-.922.911-1.46.067-2.848-.158-4.145-.911-1.134-.669-2.016-1.606-2.79-2.676C2.934 6.222 1.791 3.939.755 1.598.528 1.07.691.787 1.262.778a79.91 79.91 0 0 1 2.832 0c.383.009.636.234.783.602.514 1.288 1.134 2.51 1.918 3.646.212.301.424.602.726.82.334.234.587.159.75-.226a2.44 2.44 0 0 0 .164-.76c.073-.896.081-1.79-.05-2.685-.08-.56-.383-.92-.93-1.02-.277-.05-.236-.16-.097-.318.26-.284.481-.46.914-.46h3.272c.514.1.628.343.702.87v3.72c-.008.21.098.82.465.954.285.1.481-.142.653-.326.783-.853 1.338-1.856 1.844-2.902.22-.46.416-.936.595-1.413.14-.351.351-.527.743-.518h3.15c.09 0 .188 0 .277.016.53.092.678.326.514.862-.26.836-.758 1.53-1.248 2.224-.522.744-1.085 1.463-1.608 2.216-.49.686-.448 1.029.147 1.622z"/></symbol></svg>