<svg xmlns="http://www.w3.org/2000/svg" viewBox="0 0 38.49 95.1"><title>people</title><g id="Слой_2" data-name="Слой 2"><g id="Layer_1" data-name="Layer 1"><path d="M38.44,54h0l-2.2-18.2a14,14,0,0,0-7.9-10.9A14.11,14.11,0,1,0,5.14,14.2a14.38,14.38,0,0,0,5,10.8,14,14,0,0,0-7.9,10.9L0,53.7a6.21,6.21,0,0,0,1.6,5,6.39,6.39,0,0,0,4.8,2.2h.8l1.5,28.4a6.13,6.13,0,0,0,6.1,5.8h8.8a6.07,6.07,0,0,0,6.1-5.8l1.5-28.5h1.1a6.22,6.22,0,0,0,4.6-2.1A5.74,5.74,0,0,0,38.44,54ZM19.24,4.7a9.5,9.5,0,1,1-9.5,9.5A9.56,9.56,0,0,1,19.24,4.7Zm14.2,51a1.5,1.5,0,0,1-1.2.5h-3.3a2.38,2.38,0,0,0-2.3,2.2L25,89a1.54,1.54,0,0,1-1.5,1.5h-8.8a1.47,1.47,0,0,1-1.5-1.5l-1.6-30.6a2.38,2.38,0,0,0-2.3-2.2h-3A1.76,1.76,0,0,1,5,55.6a1.68,1.68,0,0,1-.4-1.4l2.2-17.8A9.28,9.28,0,0,1,16,28.3h6.5a9.28,9.28,0,0,1,9.2,8.1l2.2,18.1A1.68,1.68,0,0,1,33.44,55.7Z"/></g></g></svg>