<svg width="89" height="22" viewBox="0 0 89 22" fill="none" xmlns="http://www.w3.org/2000/svg">
<path d="M9.9082 21.2302C10.2559 21.5717 10.9512 21.5717 11.4727 21.2302C11.8203 20.8888 11.8203 20.2058 11.4727 19.6937L3.65039 12.0107L87.957 12.0107C88.4785 12.1815 89 11.6693 89 11.1571C89 10.6449 88.4785 10.1327 87.957 10.1327L3.65039 10.1327L11.4727 2.44975C11.8203 2.10829 11.8203 1.42536 11.4727 0.913167C11.125 0.571704 10.4297 0.571704 9.9082 0.913167L0.347655 10.3034C-9.47791e-07 10.6449 -8.88087e-07 11.3278 0.347655 11.84L9.9082 21.2302Z" fill="#1E201D" fill-opacity="0.3"/>
</svg>
