<svg width="89" height="22" viewBox="0 0 89 22" fill="none" xmlns="http://www.w3.org/2000/svg">
<path d="M79.0918 21.2302C78.7441 21.5717 78.0488 21.5717 77.5273 21.2302C77.1797 20.8888 77.1797 20.2058 77.5273 19.6937L85.3496 12.0107L1.04297 12.0107C0.521485 12.1815 8.58236e-07 11.6693 9.03013e-07 11.1571C9.47791e-07 10.6449 0.521485 10.1327 1.04297 10.1327L85.3496 10.1327L77.5273 2.44975C77.1797 2.10829 77.1797 1.42536 77.5273 0.913167C77.875 0.571704 78.5703 0.571704 79.0918 0.913167L88.6523 10.3034C89 10.6449 89 11.3278 88.6523 11.84L79.0918 21.2302Z" fill="#1E201D" fill-opacity="0.3"/>
</svg>
