<svg width="16" height="14" viewBox="0 0 16 14" fill="none" xmlns="http://www.w3.org/2000/svg">
<path d="M6.69024 6.07812H4.36836C4.18711 6.07812 4.03711 6.2493 4.03711 6.46418V9.17022C4.03711 9.38145 4.18398 9.55627 4.36836 9.55627H6.69024C6.87149 9.55627 7.02149 9.3851 7.02149 9.17022V6.46418C7.02149 6.2493 6.87149 6.07812 6.69024 6.07812ZM6.35899 8.78416H4.69961V6.8466H6.35899V8.78416Z" fill="#495057"/>
<path d="M14.894 0.921196H12.4663V0.429649C12.4663 0.192978 12.3038 0 12.1008 0C11.8977 0 11.7321 0.192978 11.7321 0.429649V0.924837H9.73247V0.429649C9.73247 0.192978 9.56688 0 9.3638 0C9.16384 0 8.99824 0.192978 8.99824 0.429649V0.924837H6.99863V0.429649C6.99863 0.192978 6.83304 0 6.62996 0C6.42687 0 6.26128 0.192978 6.26128 0.429649V0.924837H4.26167V0.429649C4.26167 0.192978 4.09608 0 3.89299 0C3.69303 0 3.53056 0.192978 3.53056 0.429649V0.924837H1.10291C0.493654 0.921196 0 1.50013 0 2.2065V12.7147C0 13.4211 0.493654 14 1.10291 14H14.8971C15.5032 14 16 13.4247 16 12.7147V2.2065C15.9969 1.50013 15.5032 0.921196 14.894 0.921196ZM15.2626 12.7147C15.2626 12.9514 15.0971 13.1443 14.894 13.1443H1.10291C0.899824 13.1443 0.734232 12.9514 0.734232 12.7147V2.2065C0.734232 1.96983 0.899824 1.77685 1.10291 1.77685H3.53056V2.27204C3.53056 2.50871 3.69615 2.70169 3.89924 2.70169C4.10232 2.70169 4.26792 2.50871 4.26792 2.27204V1.77685H6.26753V2.27204C6.26753 2.50871 6.43312 2.70169 6.6362 2.70169C6.83929 2.70169 6.99863 2.50871 6.99863 2.27204V1.77685H8.99824V2.27204C8.99824 2.50871 9.16384 2.70169 9.36692 2.70169C9.57001 2.70169 9.7356 2.50871 9.7356 2.27204V1.77685H11.7352V2.27204C11.7352 2.50871 11.9008 2.70169 12.1039 2.70169C12.307 2.70169 12.4726 2.50871 12.4726 2.27204V1.77685H14.9002C15.1033 1.77685 15.2689 1.96983 15.2689 2.2065L15.2626 12.7147Z" fill="#495057"/>
</svg>
