<svg width="25" height="23" viewBox="0 0 25 23" fill="none" xmlns="http://www.w3.org/2000/svg">
<path d="M24.2838 11.202C23.8859 11.202 23.5676 11.5167 23.5676 11.9099V18.3465C23.5676 20.0966 22.122 21.519 20.3581 21.519H4.64191C2.87135 21.519 1.43236 20.0901 1.43236 18.3465V11.8051C1.43236 11.4118 1.11406 11.0972 0.71618 11.0972C0.318302 11.0972 0 11.4118 0 11.8051V18.3465C0 20.8766 2.08223 22.9347 4.64191 22.9347H20.3581C22.9178 22.9347 25 20.8766 25 18.3465V11.9099C25 11.5232 24.6817 11.202 24.2838 11.202Z" fill="#623377"/>
<path d="M11.9978 17.3174C12.137 17.4551 12.3227 17.5272 12.5018 17.5272C12.6808 17.5272 12.8665 17.4616 13.0057 17.3174L17.5548 12.821C17.8333 12.5457 17.8333 12.1 17.5548 11.8181C17.2763 11.5428 16.8253 11.5428 16.5402 11.8181L13.2113 15.1085V0.747445C13.2113 0.35417 12.893 0.0395508 12.4951 0.0395508C12.0972 0.0395508 11.7789 0.35417 11.7789 0.747445V15.1085L8.45003 11.8181C8.17152 11.5428 7.72059 11.5428 7.43545 11.8181C7.15693 12.0934 7.15693 12.5391 7.43545 12.821L11.9978 17.3174Z" fill="#623377"/>
</svg>
