<svg width="28" height="23" viewBox="0 0 28 23" fill="none" xmlns="http://www.w3.org/2000/svg">
<path d="M28 18.7503C28 19.3949 27.8291 19.9893 27.5488 20.512L18.71 10.1494L27.4531 2.13574C27.7949 2.7015 28 3.36751 28 4.08366V18.7503ZM14 12.0329L26.168 0.875326C25.6689 0.588867 25.1084 0.416992 24.5 0.416992H3.5C2.8916 0.416992 2.33105 0.588867 1.83203 0.875326L14 12.0329ZM17.3906 11.3597L14.5742 13.945C14.4102 14.0954 14.2051 14.167 14 14.167C13.7949 14.167 13.5898 14.0882 13.4258 13.9378L10.6094 11.3525L1.6543 21.8512C2.19434 22.2021 2.82324 22.417 3.5 22.417H24.5C25.1836 22.417 25.8125 22.2093 26.3457 21.8512L17.3906 11.3597ZM0.546875 2.13574C0.205078 2.7015 0 3.36751 0 4.08366V18.7503C0 19.3949 0.170898 19.9893 0.451172 20.512L9.29004 10.1494L0.546875 2.13574Z" fill="white"/>
</svg>
