<svg width="9" height="18" viewBox="0 0 9 18" fill="none" xmlns="http://www.w3.org/2000/svg">
<path d="M8.65385 0.99707H6.49038C4.06731 0.99707 2.50962 2.63296 2.50962 5.17522V7.0985H0.346154C0.151442 7.0985 0 7.25325 0 7.45221V10.2376C0 10.4366 0.151442 10.5913 0.346154 10.5913H2.50962V17.6434C2.50962 17.8423 2.66106 17.9971 2.85577 17.9971H5.6899C5.88462 17.9971 6.03606 17.8423 6.03606 17.6434V10.5913H8.56731C8.76202 10.5913 8.91346 10.4366 8.91346 10.2376V7.45221C8.91346 7.36378 8.87019 7.27535 8.80529 7.20903C8.74039 7.14271 8.65385 7.0985 8.56731 7.0985H6.01442V5.46261C6.01442 4.66677 6.1875 4.26885 7.20433 4.26885H8.65385C8.84856 4.26885 9 4.11411 9 3.91515V1.35078C9 1.15182 8.84856 0.99707 8.65385 0.99707Z" fill="#495057"/>
</svg>
