<svg width="19" height="22" viewBox="0 0 19 22" fill="none" xmlns="http://www.w3.org/2000/svg">
<g clip-path="url(#clip0)">
<path d="M13.7581 0.435547H5.24186C2.34689 0.435547 0 3.03482 0 6.24111V15.6732C0 18.8795 2.34689 21.4788 5.24186 21.4788H13.7581C16.6531 21.4788 19 18.8795 19 15.6732V6.24111C19 3.03482 16.6531 0.435547 13.7581 0.435547ZM17.3136 15.6732C17.3136 17.8522 15.7115 19.611 13.7581 19.611H5.24186C3.27441 19.611 1.68639 17.8367 1.68639 15.6732V6.24111C1.68639 4.07764 3.28846 2.30329 5.24186 2.30329H13.7581C15.7256 2.30329 17.3136 4.07764 17.3136 6.24111V15.6732Z" fill="#495057"/>
<path d="M9.4998 5.54004C6.80158 5.54004 4.59521 7.9681 4.59521 10.9565C4.59521 13.9449 6.78752 16.3885 9.4998 16.3885C12.198 16.3885 14.4044 13.9604 14.4044 10.9565C14.4044 7.9681 12.198 5.54004 9.4998 5.54004ZM9.4998 14.5208C7.72909 14.5208 6.28161 12.9332 6.28161 10.9721C6.29566 8.99536 7.72909 7.40778 9.4998 7.40778C11.2705 7.40778 12.718 8.99536 12.718 10.9565C12.718 12.9176 11.2705 14.5208 9.4998 14.5208Z" fill="#495057"/>
<path d="M4.3988 3.95215C4.07557 3.95215 3.75235 4.09221 3.52749 4.35677C3.30264 4.60576 3.16211 4.96369 3.16211 5.32162C3.16211 5.67955 3.28859 6.03748 3.52749 6.28647C3.75235 6.53547 4.07557 6.69109 4.3988 6.69109C4.72203 6.69109 5.04525 6.55103 5.2701 6.28647C5.49496 6.03748 5.63549 5.67955 5.63549 5.32162C5.63549 4.96369 5.50901 4.60576 5.2701 4.35677C5.04525 4.09221 4.73608 3.95215 4.3988 3.95215Z" fill="#495057"/>
<g clip-path="url(#clip1)">
<path d="M5.5873 0.352538L13.6708 0.352539C16.9594 0.352539 19.6309 3.16339 19.6309 6.62349L19.6309 15.1286C19.6309 18.5849 16.9594 21.3958 13.6708 21.3958L5.5873 21.3958C2.30237 21.3958 -0.37277 18.5849 -0.37277 15.1248L-0.372769 6.62349C-0.369139 3.16339 2.30237 0.352537 5.5873 0.352538ZM1.64175 15.1286C1.64175 17.4201 3.40944 19.28 5.5873 19.28L13.6708 19.28C15.8486 19.28 17.6163 17.4201 17.6163 15.1286L17.6163 6.62349C17.6163 4.33204 15.8486 2.47214 13.6708 2.47214L5.5873 2.47214C3.40944 2.47214 1.64175 4.33203 1.64175 6.62349L1.64175 15.1286Z" fill="url(#paint0_linear)"/>
<path d="M9.63081 5.43164C12.4838 5.43164 14.8032 7.87204 14.8032 10.8739C14.8032 13.8757 12.4838 16.3161 9.63081 16.3161C6.77781 16.3161 4.45839 13.8757 4.45839 10.8738C4.45839 7.87204 6.77781 5.43164 9.63081 5.43164ZM9.63081 14.2003C11.3767 14.2003 12.7923 12.7108 12.7923 10.8739C12.7923 9.03687 11.3767 7.54742 9.63081 7.54742C7.88489 7.54742 6.46928 9.03687 6.46928 10.8739C6.46928 12.7108 7.88489 14.2003 9.63081 14.2003Z" fill="url(#paint1_linear)"/>
<path d="M4.4478 6.77513C3.76421 6.77513 3.21005 6.19215 3.21005 5.47301C3.21005 4.75388 3.76421 4.1709 4.4478 4.1709C5.13139 4.1709 5.68555 4.75388 5.68555 5.47301C5.68555 6.19215 5.13139 6.77513 4.4478 6.77513Z" fill="url(#paint2_linear)"/>
</g>
</g>
<defs>
<linearGradient id="paint0_linear" x1="9.63024" y1="21.3358" x2="9.63024" y2="0.515994" gradientUnits="userSpaceOnUse">
<stop stop-color="#E09B3D"/>
<stop offset="0.3" stop-color="#C74C4D"/>
<stop offset="0.6" stop-color="#C21975"/>
<stop offset="1" stop-color="#7024C4"/>
</linearGradient>
<linearGradient id="paint1_linear" x1="9.63019" y1="21.3355" x2="9.63019" y2="0.515701" gradientUnits="userSpaceOnUse">
<stop stop-color="#E09B3D"/>
<stop offset="0.3" stop-color="#C74C4D"/>
<stop offset="0.6" stop-color="#C21975"/>
<stop offset="1" stop-color="#7024C4"/>
</linearGradient>
<linearGradient id="paint2_linear" x1="4.44743" y1="21.3325" x2="4.44744" y2="0.515812" gradientUnits="userSpaceOnUse">
<stop stop-color="#E09B3D"/>
<stop offset="0.3" stop-color="#C74C4D"/>
<stop offset="0.6" stop-color="#C21975"/>
<stop offset="1" stop-color="#7024C4"/>
</linearGradient>
<clipPath id="clip0">
<rect width="19" height="21.0432" fill="white" transform="matrix(-1 0 0 1 19 0.435547)"/>
</clipPath>
<clipPath id="clip1">
<rect width="20" height="21.0432" fill="white" transform="matrix(-1 -9.16755e-08 -8.33674e-08 1 19.6309 0.352539)"/>
</clipPath>
</defs>
</svg>
