<svg width="19" height="20" viewBox="0 0 19 20" fill="none" xmlns="http://www.w3.org/2000/svg">
<path d="M13.7581 0H5.24186C2.34689 0 0 2.47041 0 5.51775V14.4822C0 17.5296 2.34689 20 5.24186 20H13.7581C16.6531 20 19 17.5296 19 14.4822V5.51775C19 2.47041 16.6531 0 13.7581 0ZM17.3136 14.4822C17.3136 16.5533 15.7115 18.2249 13.7581 18.2249H5.24186C3.27441 18.2249 1.68639 16.5385 1.68639 14.4822V5.51775C1.68639 3.46154 3.28846 1.77515 5.24186 1.77515H13.7581C15.7256 1.77515 17.3136 3.46154 17.3136 5.51775V14.4822Z" fill="#495057"/>
<path d="M9.4998 4.85205C6.80158 4.85205 4.59521 7.15974 4.59521 9.99998C4.59521 12.8402 6.78752 15.1627 9.4998 15.1627C12.198 15.1627 14.4044 12.855 14.4044 9.99998C14.4044 7.15974 12.198 4.85205 9.4998 4.85205ZM9.4998 13.3876C7.72909 13.3876 6.28161 11.8787 6.28161 10.0148C6.29566 8.13607 7.72909 6.6272 9.4998 6.6272C11.2705 6.6272 12.718 8.13607 12.718 9.99998C12.718 11.8639 11.2705 13.3876 9.4998 13.3876Z" fill="#495057"/>
<path d="M4.3988 3.34326C4.07557 3.34326 3.75235 3.4764 3.52749 3.72788C3.30264 3.96456 3.16211 4.3048 3.16211 4.64504C3.16211 4.98527 3.28859 5.32551 3.52749 5.5622C3.75235 5.79888 4.07557 5.94681 4.3988 5.94681C4.72203 5.94681 5.04525 5.81368 5.2701 5.5622C5.49496 5.32551 5.63549 4.98527 5.63549 4.64504C5.63549 4.3048 5.50901 3.96456 5.2701 3.72788C5.04525 3.4764 4.73608 3.34326 4.3988 3.34326Z" fill="#495057"/>
</svg>
