<svg width="15" height="15" viewBox="0 0 15 15" fill="none" xmlns="http://www.w3.org/2000/svg">
<path d="M14.9605 6.9617H14.2328V3.66493C14.2328 2.87282 13.5841 2.23131 12.783 2.23131H11.8014L10.7973 0.446263C10.645 0.167348 10.3516 0 10.0357 0C9.88906 0 9.74238 0.039048 9.61264 0.105987L5.75404 2.22573H1.44979C0.64874 2.23131 0 2.87282 0 3.66493V13.5106C0 14.3027 0.64874 14.9442 1.44979 14.9442H12.783C13.5841 14.9442 14.2328 14.3027 14.2328 13.5106V10.621H14.9605V6.9617ZM12.7886 2.8003C13.2343 2.8003 13.601 3.13499 13.6517 3.56452H12.563L12.1286 2.8003H12.7886ZM9.90034 0.608033C10.0357 0.529937 10.2219 0.58572 10.2952 0.719598L11.8973 3.56452H4.51862L9.90034 0.608033ZM13.6574 13.5106C13.6574 13.9848 13.2681 14.3697 12.7886 14.3697H1.44979C0.97029 14.3697 0.581046 13.9848 0.581046 13.5106V3.66493C0.581046 3.19078 0.97029 2.80588 1.44979 2.80588H4.71606L3.32268 3.5701H1.63031C1.47236 3.5701 1.34261 3.6984 1.34261 3.85459C1.34261 4.01078 1.47236 4.13909 1.63031 4.13909H13.6574V6.9617H11.5363C10.5491 6.9617 9.74803 7.75381 9.74803 8.73001V8.85273C9.74803 9.82893 10.5491 10.621 11.5363 10.621H13.6574V13.5106ZM14.3795 10.0465H11.5307C10.865 10.0465 10.3234 9.51097 10.3234 8.85273V8.73001C10.3234 8.07177 10.865 7.53626 11.5307 7.53626H14.3795V10.0465ZM12.422 8.81369C12.422 9.16512 12.1343 9.44961 11.7789 9.44961C11.4235 9.44961 11.1358 9.16512 11.1358 8.81369C11.1358 8.46225 11.4235 8.17776 11.7789 8.17776C12.1343 8.17776 12.422 8.46225 12.422 8.81369Z" fill="#495057"/>
</svg>
