<svg width="22" height="22" viewBox="0 0 22 22" fill="none" xmlns="http://www.w3.org/2000/svg">
<path d="M21.0537 17.1614C21.0993 17.5116 20.9945 17.8151 20.7395 18.0765L17.7752 21.0925C17.6432 21.2466 17.4656 21.3726 17.2516 21.48C17.0376 21.5874 16.8236 21.6574 16.6141 21.6854C16.6004 21.6854 16.5549 21.6901 16.4821 21.6948C16.4092 21.7041 16.309 21.7041 16.1906 21.7041C15.9083 21.7041 15.453 21.6527 14.82 21.5547C14.1871 21.4567 13.4176 21.2139 12.5023 20.8217C11.5871 20.4342 10.5535 19.8506 9.39232 19.0709C8.23119 18.2959 6.9972 17.2268 5.69036 15.8729C4.65217 14.8224 3.78701 13.8139 3.10399 12.8569C2.42098 11.8951 1.87001 11.008 1.45564 10.1957C1.04128 9.37865 0.727089 8.64099 0.51763 7.97803C0.312724 7.31973 0.171567 6.74548 0.0941583 6.26927C0.021303 5.78839 -0.0105712 5.41022 0.00308913 5.13944C0.0167495 4.86398 0.0258564 4.71458 0.0258564 4.6819C0.0577306 4.46714 0.121479 4.25238 0.226209 4.02828C0.330938 3.80885 0.458435 3.62677 0.604146 3.49137L3.573 0.452026C3.78246 0.237264 4.01924 0.129883 4.28789 0.129883C4.47914 0.129883 4.65217 0.185908 4.80244 0.302626C4.9527 0.414676 5.07564 0.559406 5.18037 0.727481L7.56639 5.3682C7.69844 5.61098 7.73942 5.8771 7.67567 6.16656C7.61647 6.45602 7.48898 6.69879 7.29773 6.89955L6.2049 8.02004C6.17303 8.05273 6.15026 8.09941 6.12749 8.16944C6.10472 8.23947 6.09562 8.2955 6.09562 8.34219C6.15481 8.66433 6.28686 9.02849 6.49632 9.43934C6.67391 9.8035 6.95167 10.2517 7.3205 10.7746C7.69388 11.3022 8.21753 11.9044 8.9051 12.5907C9.57446 13.291 10.1664 13.8373 10.6901 14.2248C11.2092 14.6123 11.6463 14.8971 11.9923 15.0838C12.343 15.2659 12.6071 15.378 12.7938 15.4153L13.0715 15.4713C13.1034 15.4713 13.1489 15.462 13.2172 15.4387C13.2855 15.4153 13.3311 15.3873 13.3629 15.3593L14.6334 14.0334C14.902 13.7906 15.2116 13.6692 15.5714 13.6692C15.8264 13.6692 16.0267 13.7159 16.1724 13.8046H16.1952L20.4982 16.4098C20.8078 16.6012 20.9945 16.8533 21.0537 17.1614Z" fill="white"/>
</svg>
