<svg width="17" height="18" viewBox="0 0 17 18" fill="none" xmlns="http://www.w3.org/2000/svg">
<g clip-path="url(#clip0)">
<path d="M15.0347 4.63636L14.8381 4.84091C14.4778 5.21591 14.2486 5.31818 13.7245 5.31818C12.6763 5.31818 11.8902 4.5 11.8902 3.40909C11.8902 2.86364 11.9884 2.59091 12.3487 2.25L12.5453 2.04545L10.58 0L0 11.0114L1.93256 13.0227L2.12909 12.8182C2.4894 12.4432 2.71869 12.3409 3.24277 12.3409C4.29094 12.3409 5.07707 13.1591 5.07707 14.25C5.07707 14.7955 4.97881 15.0682 4.6185 15.4091L4.42197 15.6136L6.35453 17.625L16.9345 6.61364L15.0347 4.63636ZM5.17534 15.6477C5.50289 15.2727 5.60116 14.8977 5.60116 14.2841C5.60116 12.8864 4.58574 11.8295 3.24277 11.8295C2.68593 11.8295 2.32563 11.9318 1.93256 12.2727L0.720617 11.0114L6.91137 4.56818L7.76301 5.45455L8.12331 5.07955L7.27168 4.19318L10.58 0.784091L11.7919 2.04545C11.4644 2.42045 11.3661 2.79545 11.3661 3.40909C11.3661 4.80682 12.3815 5.86364 13.7245 5.86364C14.2813 5.86364 14.6416 5.76136 15.0347 5.42045L16.2466 6.68182L12.9383 10.0909L12.0867 9.20455L11.7264 9.57955L12.578 10.4659L6.38728 16.9091L5.17534 15.6477Z" fill="#495057" stroke="black" stroke-width="0.2"/>
<path d="M9.36799 7.12509L8.31982 6.03418L8.68013 5.65918L9.7283 6.75009L9.36799 7.12509Z" fill="#495057" stroke="black" stroke-width="0.2"/>
<path d="M11.2025 9.03427L10.1543 7.94336L10.5146 7.56836L11.5628 8.65927L11.2025 9.03427Z" fill="#495057" stroke="black" stroke-width="0.2"/>
</g>
<defs>
<clipPath id="clip0">
<rect width="17" height="18" fill="white"/>
</clipPath>
</defs>
</svg>
