<svg width="18" height="16" viewBox="0 0 18 16" fill="none" xmlns="http://www.w3.org/2000/svg">
<g clip-path="url(#clip0)">
<path d="M17.7 10.565C17.865 10.565 18 10.4292 18 10.2631V7.84805C18 7.68201 17.865 7.54616 17.7 7.54616H13.9237L15.81 5.64805C15.9263 5.53106 15.9263 5.33861 15.81 5.22163L14.1713 3.57257C14.055 3.45559 13.8638 3.45559 13.7475 3.57257C13.2788 4.04427 12.5175 4.04427 12.0487 3.57257C11.58 3.10088 11.58 2.33484 12.0487 1.86314C12.165 1.74616 12.165 1.55371 12.0487 1.43673L10.7138 0.0857827C10.5975 -0.0311984 10.4062 -0.0311984 10.29 0.0857827L2.87625 7.54616H0.3C0.135 7.54616 0 7.68201 0 7.84805V10.2631C0 10.4292 0.135 10.565 0.3 10.565C0.96375 10.565 1.5 11.1046 1.5 11.7726C1.5 12.4405 0.96375 12.9801 0.3 12.9801C0.135 12.9801 0 13.116 0 13.282V15.6971C0 15.8631 0.135 15.999 0.3 15.999H17.7C17.865 15.999 18 15.8631 18 15.6971V13.282C18 13.116 17.865 12.9801 17.7 12.9801C17.0363 12.9801 16.5 12.4405 16.5 11.7726C16.5 11.1046 17.0363 10.565 17.7 10.565ZM10.5 0.727292L11.4338 1.66691C10.8562 2.48201 11.0438 3.61031 11.8538 4.19522C12.48 4.64427 13.32 4.64427 13.9462 4.19522L15.18 5.43673L13.08 7.54993H12.1275L12.8138 6.85937C12.93 6.74239 12.93 6.54993 12.8138 6.43295L9.51375 3.1122C9.3975 2.99522 9.20625 2.99522 9.09 3.1122L4.67625 7.54616H3.72375L10.5 0.727292ZM5.52375 7.54616L9.3 3.74616L12.1763 6.6405L11.2763 7.54616H5.52375ZM17.4 13.5575V15.3952H15V14.1877H14.4V15.3952H3.6V15.0933H3V15.3952H0.6V13.5575C1.57875 13.3914 2.2425 12.4594 2.0775 11.4707C1.95 10.7084 1.3575 10.1122 0.6 9.9839V8.14993H3V9.05559H3.6V8.14993H17.4V9.98767C16.4213 10.1537 15.7575 11.0858 15.9225 12.0745C16.05 12.833 16.6425 13.4292 17.4 13.5575Z" fill="#495057"/>
<path d="M14.9999 8.75488H14.3999V9.96243H14.9999V8.75488Z" fill="#495057"/>
<path d="M14.9999 10.5664H14.3999V11.774H14.9999V10.5664Z" fill="#495057"/>
<path d="M14.9999 12.377H14.3999V13.5845H14.9999V12.377Z" fill="#495057"/>
<path d="M3.6 9.66016H3V10.8677H3.6V9.66016Z" fill="#495057"/>
<path d="M3.6 11.4717H3V12.6792H3.6V11.4717Z" fill="#495057"/>
<path d="M3.6 13.2832H3V14.4908H3.6V13.2832Z" fill="#495057"/>
<path d="M13.2 9.66054C12.87 9.66054 12.6 9.38885 12.6 9.05677C12.6 8.89073 12.465 8.75488 12.3 8.75488H5.7C5.535 8.75488 5.4 8.89073 5.4 9.05677C5.4 9.38885 5.13 9.66054 4.8 9.66054C4.635 9.66054 4.5 9.79639 4.5 9.96243V13.5851C4.5 13.7511 4.635 13.887 4.8 13.887C5.13 13.887 5.4 14.1587 5.4 14.4907C5.4 14.6568 5.535 14.7926 5.7 14.7926H12.3C12.465 14.7926 12.6 14.6568 12.6 14.4907C12.6 14.1587 12.87 13.887 13.2 13.887C13.365 13.887 13.5 13.7511 13.5 13.5851V9.96243C13.5 9.79639 13.365 9.66054 13.2 9.66054ZM12.9 13.3209C12.4763 13.4304 12.1463 13.7624 12.0375 14.1888H5.9625C5.85375 13.7624 5.52375 13.4304 5.1 13.3209V10.2266C5.52375 10.1171 5.85375 9.78507 5.9625 9.35866H12.0375C12.1463 9.78507 12.4763 10.1171 12.9 10.2266V13.3209Z" fill="#495057"/>
</g>
<defs>
<clipPath id="clip0">
<rect width="18" height="16" fill="white"/>
</clipPath>
</defs>
</svg>
