<svg width="13" height="15" viewBox="0 0 13 15" fill="none" xmlns="http://www.w3.org/2000/svg">
<path d="M6.44089 8.07265H6.54369C7.46887 8.05718 8.22009 7.74001 8.77361 7.12887C9.99138 5.78668 9.78973 3.48524 9.76601 3.26476C9.68694 1.617 8.88827 0.827938 8.23195 0.456612C7.74168 0.181986 7.16838 0.0311352 6.53183 0.0195312H6.47647C6.12459 0.0195312 5.43663 0.0736829 4.77635 0.445008C4.10816 0.812466 3.3016 1.60153 3.22252 3.26476C3.1988 3.48524 2.99715 5.78668 4.21492 7.12887C4.76449 7.74001 5.51571 8.05718 6.44089 8.07265ZM4.06467 3.34212C4.06467 3.33438 4.06863 3.32278 4.06863 3.31891C4.17143 1.0987 5.78456 0.862749 6.47252 0.862749H6.51206C7.36607 0.882089 8.81711 1.22247 8.91595 3.31891C8.91595 3.32665 8.91595 3.33825 8.9199 3.34212C8.92386 3.36533 9.14527 5.46951 8.13706 6.57575C7.73773 7.0167 7.20792 7.2333 6.5081 7.23717H6.47647C5.78061 7.22943 5.24685 7.01283 4.85147 6.57575C3.84722 5.47337 4.06072 3.36146 4.06467 3.34212Z" fill="#495057"/>
<path d="M12.9923 11.8901V11.8823C12.9923 11.8591 12.9883 11.832 12.9883 11.805C12.9685 11.1938 12.929 9.75881 11.557 9.30239C11.5491 9.29852 11.5333 9.29465 11.5254 9.29465C10.0981 8.9388 8.91197 8.13426 8.90011 8.12653C8.70637 7.99502 8.44147 8.04143 8.30704 8.22709C8.17261 8.41662 8.22006 8.67578 8.40984 8.80729C8.46519 8.84597 9.72249 9.70079 11.2961 10.0992C12.0315 10.3545 12.1145 11.1281 12.1382 11.832C12.1382 11.8591 12.1382 11.8862 12.1422 11.9094C12.1462 12.1879 12.1264 12.6172 12.075 12.8648C11.561 13.151 9.55248 14.1335 6.50017 14.1335C3.45576 14.1335 1.43539 13.1472 0.921397 12.8609C0.869998 12.6134 0.850229 12.184 0.854183 11.9055C0.854183 11.8823 0.858136 11.8553 0.858136 11.8282C0.881859 11.1242 0.960934 10.3506 1.70029 10.0953C3.27389 9.70079 4.53514 8.83823 4.58654 8.80342C4.78028 8.67191 4.82772 8.40889 4.68934 8.22323C4.55491 8.03369 4.28606 7.98728 4.09628 8.12266C4.08441 8.13039 2.90224 8.93493 1.47097 9.29079C1.45911 9.29465 1.44725 9.29852 1.43934 9.29852C0.0673822 9.75881 0.0238907 11.1938 0.00807557 11.8011C0.00807557 11.8282 0.00807557 11.8553 0.0041218 11.8785V11.8862C0.000168024 12.0487 -0.00378577 12.8725 0.166226 13.2864C0.197857 13.3676 0.253209 13.4334 0.332285 13.4798C0.427175 13.5417 2.70059 14.9574 6.50808 14.9574C10.3156 14.9574 12.589 13.5378 12.6839 13.4798C12.755 13.4334 12.8183 13.3638 12.8499 13.2864C12.9962 12.8803 12.9962 12.0525 12.9923 11.8901Z" fill="#495057"/>
</svg>
