<svg width="13" height="16" viewBox="0 0 13 16" fill="none" xmlns="http://www.w3.org/2000/svg">
<path d="M6.50085 7.82222C8.39897 7.82222 9.9431 6.06794 9.9431 3.90794C9.9431 1.74794 9.43653 -0.00634766 6.50085 -0.00634766C3.56517 -0.000633371 3.05859 1.75365 3.05859 3.91365C3.05859 6.07365 4.60272 7.82222 6.50085 7.82222Z" fill="#623377"/>
<path d="M12.988 13.6398C12.927 9.87406 12.4021 8.80549 8.38006 8.12549C8.38006 8.12549 7.81245 8.79977 6.49414 8.79977C5.17583 8.79977 4.60823 8.12549 4.60823 8.12549C0.634986 8.79977 0.0795866 9.8512 0.0063472 13.5198C0.000243912 13.8169 0.000243912 13.8341 -0.00585938 13.7998C-0.00585938 13.8626 -0.00585938 13.9883 -0.00585938 14.1941C-0.00585938 14.1941 0.952356 15.9998 6.49414 15.9998C12.0359 15.9998 12.9941 14.1941 12.9941 14.1941C12.9941 14.0569 12.9941 13.9655 12.9941 13.9026C12.9941 13.9255 12.9941 13.8798 12.988 13.6398Z" fill="#623377"/>
</svg>
