<svg width="21" height="12" viewBox="0 0 21 12" fill="none" xmlns="http://www.w3.org/2000/svg">
<path fill-rule="evenodd" clip-rule="evenodd" d="M17.7783 7.7023C18.4392 8.36292 19.1328 8.98173 19.7204 9.70925C19.9815 10.0354 20.2263 10.3615 20.414 10.7378C20.6833 11.273 20.4385 11.8584 19.9733 11.8834H17.0765C16.3257 11.9503 15.7382 11.6409 15.2323 11.1141C14.8324 10.696 14.457 10.2528 14.0735 9.81796C13.9185 9.64235 13.7471 9.47511 13.5513 9.34131C13.1596 9.08208 12.8168 9.15734 12.5884 9.58382C12.3599 10.0103 12.3028 10.4869 12.2864 10.972C12.2538 11.6744 12.0498 11.85 11.3643 11.8834C9.90365 11.9503 8.51641 11.7246 7.21894 10.972C6.08467 10.303 5.20337 9.3664 4.42815 8.29603C2.93483 6.22218 1.7924 3.93928 0.756055 1.59785C0.52757 1.07102 0.690774 0.786705 1.26199 0.778342C2.20857 0.761618 3.147 0.761618 4.09358 0.778342C4.47711 0.786705 4.73008 1.01249 4.87696 1.38043C5.39105 2.66822 6.01123 3.88911 6.79461 5.02638C7.00678 5.32742 7.21894 5.62846 7.52087 5.84588C7.85544 6.08002 8.1084 6.00476 8.27161 5.6201C8.36953 5.37759 8.41849 5.11836 8.43481 4.85913C8.50825 3.96437 8.51641 3.06961 8.38585 2.17484C8.30425 1.61457 8.00232 1.25499 7.45559 1.15464C7.17814 1.10447 7.21894 0.995761 7.35767 0.836878C7.61879 0.552561 7.83912 0.376953 8.27161 0.376953H11.5439C12.0579 0.4773 12.1722 0.719806 12.2456 1.24663V4.96784C12.2375 5.1769 12.3436 5.78734 12.7108 5.92114C12.9964 6.02149 13.1922 5.77898 13.3636 5.59501C14.147 4.74206 14.7019 3.73859 15.2078 2.6933C15.4281 2.23338 15.624 1.75673 15.8035 1.28008C15.9422 0.928863 16.1544 0.753255 16.5461 0.761618H19.6959C19.7857 0.761618 19.8836 0.761618 19.9733 0.778342C20.5038 0.870327 20.6506 1.10447 20.4874 1.63966C20.2263 2.47588 19.7285 3.16995 19.2389 3.86402C18.7167 4.60826 18.1536 5.32742 17.6314 6.08002C17.1418 6.76573 17.1826 7.10858 17.7783 7.7023Z" fill="white"/>
</svg>
