<svg width="38" height="29" viewBox="0 0 38 29" fill="none" xmlns="http://www.w3.org/2000/svg">
<g opacity="0.1" clip-path="url(#clip0)">
<path d="M30.7342 11.1498C31.2384 11.1498 31.6471 10.7344 31.6471 10.2219C31.6471 9.7094 31.2384 9.29395 30.7342 9.29395C30.23 9.29395 29.8213 9.7094 29.8213 10.2219C29.8213 10.7344 30.23 11.1498 30.7342 11.1498Z" fill="black"/>
<path d="M24.8631 11.1498C25.3673 11.1498 25.776 10.7344 25.776 10.2219C25.776 9.7094 25.3673 9.29395 24.8631 9.29395C24.3589 9.29395 23.9502 9.7094 23.9502 10.2219C23.9502 10.7344 24.3589 11.1498 24.8631 11.1498Z" fill="black"/>
<path d="M18.9998 11.1498C19.504 11.1498 19.9127 10.7344 19.9127 10.2219C19.9127 9.7094 19.504 9.29395 18.9998 9.29395C18.4956 9.29395 18.0869 9.7094 18.0869 10.2219C18.0869 10.7344 18.4956 11.1498 18.9998 11.1498Z" fill="black"/>
<path d="M13.1365 11.1498C13.6407 11.1498 14.0494 10.7344 14.0494 10.2219C14.0494 9.7094 13.6407 9.29395 13.1365 9.29395C12.6323 9.29395 12.2236 9.7094 12.2236 10.2219C12.2236 10.7344 12.6323 11.1498 13.1365 11.1498Z" fill="black"/>
<path d="M7.26641 11.1498C7.77058 11.1498 8.1793 10.7344 8.1793 10.2219C8.1793 9.7094 7.77058 9.29395 7.26641 9.29395C6.76223 9.29395 6.35352 9.7094 6.35352 10.2219C6.35352 10.7344 6.76223 11.1498 7.26641 11.1498Z" fill="black"/>
<path d="M30.7342 17.1186C31.2384 17.1186 31.6471 16.7031 31.6471 16.1906C31.6471 15.6781 31.2384 15.2627 30.7342 15.2627C30.23 15.2627 29.8213 15.6781 29.8213 16.1906C29.8213 16.7031 30.23 17.1186 30.7342 17.1186Z" fill="black"/>
<path d="M24.8631 17.1186C25.3673 17.1186 25.776 16.7031 25.776 16.1906C25.776 15.6781 25.3673 15.2627 24.8631 15.2627C24.3589 15.2627 23.9502 15.6781 23.9502 16.1906C23.9502 16.7031 24.3589 17.1186 24.8631 17.1186Z" fill="black"/>
<path d="M18.9998 17.1186C19.504 17.1186 19.9127 16.7031 19.9127 16.1906C19.9127 15.6781 19.504 15.2627 18.9998 15.2627C18.4956 15.2627 18.0869 15.6781 18.0869 16.1906C18.0869 16.7031 18.4956 17.1186 18.9998 17.1186Z" fill="black"/>
<path d="M7.26641 17.1186C7.77058 17.1186 8.1793 16.7031 8.1793 16.1906C8.1793 15.6781 7.77058 15.2627 7.26641 15.2627C6.76223 15.2627 6.35352 15.6781 6.35352 16.1906C6.35352 16.7031 6.76223 17.1186 7.26641 17.1186Z" fill="black"/>
<path d="M30.7342 23.0776C31.2384 23.0776 31.6471 22.6621 31.6471 22.1496C31.6471 21.6371 31.2384 21.2217 30.7342 21.2217C30.23 21.2217 29.8213 21.6371 29.8213 22.1496C29.8213 22.6621 30.23 23.0776 30.7342 23.0776Z" fill="black"/>
<path d="M24.8631 23.0776C25.3673 23.0776 25.776 22.6621 25.776 22.1496C25.776 21.6371 25.3673 21.2217 24.8631 21.2217C24.3589 21.2217 23.9502 21.6371 23.9502 22.1496C23.9502 22.6621 24.3589 23.0776 24.8631 23.0776Z" fill="black"/>
<path d="M18.9998 23.0776C19.504 23.0776 19.9127 22.6621 19.9127 22.1496C19.9127 21.6371 19.504 21.2217 18.9998 21.2217C18.4956 21.2217 18.0869 21.6371 18.0869 22.1496C18.0869 22.6621 18.4956 23.0776 18.9998 23.0776Z" fill="black"/>
<path d="M13.1365 23.0776C13.6407 23.0776 14.0494 22.6621 14.0494 22.1496C14.0494 21.6371 13.6407 21.2217 13.1365 21.2217C12.6323 21.2217 12.2236 21.6371 12.2236 22.1496C12.2236 22.6621 12.6323 23.0776 13.1365 23.0776Z" fill="black"/>
<path d="M7.26641 23.0776C7.77058 23.0776 8.1793 22.6621 8.1793 22.1496C8.1793 21.6371 7.77058 21.2217 7.26641 21.2217C6.76223 21.2217 6.35352 21.6371 6.35352 22.1496C6.35352 22.6621 6.76223 23.0776 7.26641 23.0776Z" fill="black"/>
<path d="M15.89 12.5908H10.3756C9.94512 12.5908 9.58887 12.9454 9.58887 13.3905V18.9959C9.58887 19.4334 9.9377 19.7956 10.3756 19.7956H15.89C16.3205 19.7956 16.6768 19.441 16.6768 18.9959V13.3905C16.6768 12.9454 16.3205 12.5908 15.89 12.5908ZM15.1033 18.1962H11.1623V14.1827H15.1033V18.1962Z" fill="black"/>
<path d="M35.3801 1.90869H29.6133V0.890219C29.6133 0.399844 29.2273 0 28.7449 0C28.2625 0 27.8691 0.399844 27.8691 0.890219V1.91623H23.1191V0.890219C23.1191 0.399844 22.7258 0 22.2434 0C21.7684 0 21.375 0.399844 21.375 0.890219V1.91623H16.625V0.890219C16.625 0.399844 16.2316 0 15.7492 0C15.2668 0 14.8734 0.399844 14.8734 0.890219V1.91623H10.1234V0.890219C10.1234 0.399844 9.73008 0 9.24766 0C8.77266 0 8.38672 0.399844 8.38672 0.890219V1.91623H2.61992C1.17266 1.90869 0 3.10822 0 4.5718V26.3445C0 27.808 1.17266 29.0076 2.61992 29.0076H35.3875C36.8273 29.0076 38.0074 27.8156 38.0074 26.3445V4.5718C38 3.10822 36.8273 1.90869 35.3801 1.90869ZM36.2559 26.3445C36.2559 26.8348 35.8625 27.2347 35.3801 27.2347H2.61992C2.1375 27.2347 1.74414 26.8348 1.74414 26.3445V4.5718C1.74414 4.08143 2.1375 3.68158 2.61992 3.68158H8.38672V4.7076C8.38672 5.19797 8.78008 5.59782 9.2625 5.59782C9.74492 5.59782 10.1383 5.19797 10.1383 4.7076V3.68158H14.8883V4.7076C14.8883 5.19797 15.2816 5.59782 15.7641 5.59782C16.2465 5.59782 16.625 5.19797 16.625 4.7076V3.68158H21.375V4.7076C21.375 5.19797 21.7684 5.59782 22.2508 5.59782C22.7332 5.59782 23.1266 5.19797 23.1266 4.7076V3.68158H27.8766V4.7076C27.8766 5.19797 28.2699 5.59782 28.7523 5.59782C29.2348 5.59782 29.6281 5.19797 29.6281 4.7076V3.68158H35.3949C35.8773 3.68158 36.2707 4.08143 36.2707 4.5718L36.2559 26.3445Z" fill="black"/>
</g>
<defs>
<clipPath id="clip0">
<rect width="38" height="29" fill="white"/>
</clipPath>
</defs>
</svg>
