<svg width="20" height="25" viewBox="0 0 20 25" fill="none" xmlns="http://www.w3.org/2000/svg">
<g clip-path="url(#clip0)">
<path d="M13.587 4.37207H1.97571C0.882354 4.37207 0 5.26173 0 6.3498V23.0293C0 24.1173 0.882354 25.007 1.97571 25.007H13.587C14.6739 25.007 15.5627 24.1237 15.5627 23.0293V6.3498C15.5563 5.26173 14.6675 4.37207 13.587 4.37207ZM14.1752 23.0229C14.1752 23.3493 13.9067 23.6181 13.5806 23.6181H1.96931C1.64322 23.6181 1.37468 23.3493 1.37468 23.0229V6.3498C1.37468 6.02338 1.64322 5.75456 1.96931 5.75456H13.5806C13.9067 5.75456 14.1752 6.02338 14.1752 6.3498V23.0229Z" fill="#623377"/>
<path d="M18.0235 0H6.41223C5.32527 0 4.43652 0.883256 4.43652 1.97773C4.43652 2.36175 4.74343 2.66897 5.12706 2.66897C5.51069 2.66897 5.8176 2.36175 5.8176 1.97773C5.8176 1.65131 6.08614 1.38249 6.41223 1.38249H18.0235C18.3496 1.38249 18.6181 1.65131 18.6181 1.97773V18.6572C18.6181 18.9836 18.3496 19.2524 18.0235 19.2524C17.6399 19.2524 17.3329 19.5597 17.3329 19.9437C17.3329 20.3277 17.6399 20.6349 18.0235 20.6349C19.1104 20.6349 19.9992 19.7517 19.9992 18.6572V1.97773C19.9992 0.883256 19.1168 0 18.0235 0Z" fill="#623377"/>
<line x1="3" y1="10.5" x2="12" y2="10.5" stroke="#623377"/>
<line x1="3" y1="13.5" x2="12" y2="13.5" stroke="#623377"/>
<line x1="3" y1="16.5" x2="12" y2="16.5" stroke="#623377"/>
<line x1="3" y1="19.5" x2="12" y2="19.5" stroke="#623377"/>
</g>
<defs>
<clipPath id="clip0">
<rect width="20" height="25" fill="white"/>
</clipPath>
</defs>
</svg>
