<svg width="32" height="32" viewBox="0 0 32 32" fill="none" xmlns="http://www.w3.org/2000/svg">
<g opacity="0.2" clip-path="url(#clip0)">
<path d="M16.2715 2.46422C12.9915 2.46119 10.3282 5.12448 10.3312 8.40452L10.3348 24.7584C10.337 27.2271 12.3324 29.2225 14.8011 29.2247C16.8294 29.2266 18.5319 27.8605 19.0634 26.0066C19.1849 25.8734 19.2601 25.7054 19.2541 25.5142L19.239 9.16033C19.2375 7.51452 17.9092 6.18621 16.2634 6.18469C14.6176 6.18316 13.2917 7.50902 13.2932 9.15483L13.3114 22.5358C13.3118 22.9414 13.6482 23.2779 14.0539 23.2782C14.4595 23.2786 14.7953 22.9428 14.7949 22.5372L14.7884 9.15622C14.7876 8.33331 15.4534 7.66749 16.2763 7.66825C17.0992 7.66901 17.7663 8.33606 17.7613 9.15317L17.7757 24.7652C17.7772 26.4111 16.4514 27.7369 14.8055 27.7354C13.1597 27.7339 11.8314 26.4056 11.8299 24.7597L11.8148 8.4059C11.8125 5.93717 13.8042 3.94549 16.2729 3.94778C18.7416 3.95006 20.737 5.94543 20.7393 8.41415L20.7472 23.2786C20.7476 23.6843 21.084 24.0207 21.4897 24.0211C21.8953 24.0215 22.2311 23.6857 22.2308 23.28L22.217 8.40972C22.214 5.12968 19.5516 2.46726 16.2715 2.46422Z" fill="#495057"/>
</g>
<defs>
<clipPath id="clip0">
<rect width="23" height="21" fill="white" transform="translate(0 16.2637) rotate(-45)"/>
</clipPath>
</defs>
</svg>
