<svg width="18" height="28" viewBox="0 0 18 28" fill="none" xmlns="http://www.w3.org/2000/svg">
<g clip-path="url(#clip0)">
<path d="M2.16162 6.03587L5.74936 2.63477L9.35242 6.03587L5.74936 9.43698L2.16162 6.03587Z" fill="#5DAA1A"/>
<path d="M11.8057 0.322266C12.2503 1.24713 12.2503 1.24713 12.2503 1.24713C10.1805 2.18691 9.65921 6.09519 9.64388 7.52724C9.64388 16.2687 9.64388 16.2687 9.64388 16.2687C8.58596 16.2836 8.58596 16.2836 8.58596 16.2836C8.58596 7.48249 8.58596 7.48249 8.58596 7.48249C8.57062 7.24381 8.69328 1.73939 11.8057 0.322266Z" fill="#5DAA1A"/>
<path d="M18 10.332H0V27.3376H18V10.332Z" fill="#E33226"/>
<path d="M9.12256 12.0615H16.0527V18.8041L9.12256 12.0615Z" fill="white"/>
</g>
<defs>
<clipPath id="clip0">
<rect width="18" height="27" fill="white" transform="translate(0 0.322266)"/>
</clipPath>
</defs>
</svg>
