<svg width="61" height="57" viewBox="0 0 61 57" fill="none" xmlns="http://www.w3.org/2000/svg">
<g clip-path="url(#clip0)">
<path d="M16.8416 4.06719C16.8416 4.06719 11.5232 20.1145 10.798 28.7998C10.0728 37.4852 9.50872 55.5177 10.1534 56.1795C10.4757 56.5103 11.8456 55.8486 13.1349 55.1868C13.6184 54.9387 13.5378 51.63 13.8601 51.3818C14.0213 51.2991 14.6659 54.2769 14.8271 54.1942C15.3106 53.8633 15.6329 53.6979 15.6329 53.6979C15.6329 53.6979 14.0213 29.627 14.8271 26.2356C15.6329 22.8441 19.1785 8.61667 20.226 6.8796C21.2736 5.0598 20.226 4.72893 20.226 4.72893C20.226 4.72893 17.4057 2.49555 16.8416 4.06719Z" fill="#7F7F7F"/>
<path d="M27.0754 0.344689C27.0754 0.344689 29.9764 -0.399772 30.8627 2.32992C31.7491 5.05961 32.6355 6.30038 26.189 13.9104C19.7425 21.5205 12.4902 29.4614 10.3951 31.1157C8.3 32.7701 1.93408 31.1157 1.93408 31.1157C1.93408 31.1157 11.9262 22.0168 15.7941 17.3019C19.662 12.5869 26.5919 6.79668 27.0754 0.344689Z" fill="#7F7F7F"/>
<path d="M0 30.206C0 30.206 1.53104 31.3641 3.94848 31.6122C6.36592 31.8604 6.68824 25.7393 6.68824 25.7393C6.68824 25.7393 2.17569 27.9726 0 30.206Z" fill="#7F7F7F"/>
<path d="M7.09124 25.4912L4.83496 26.8974C4.83496 26.8974 8.13879 51.5473 9.91158 55.8487L11.0397 56.2623C10.3951 52.9535 7.01065 31.2815 6.52717 28.8826C5.88252 25.5739 7.09124 25.4912 7.09124 25.4912Z" fill="#7F7F7F"/>
<path d="M15.7134 21.2723C15.7134 21.2723 22.7239 49.1482 24.6579 52.0433C26.5918 54.9385 30.6209 53.4495 30.6209 53.4495C30.6209 53.4495 25.3025 39.6357 23.1269 32.3565C20.9512 25.0773 21.8376 17.8809 21.8376 17.8809" fill="#7F7F7F"/>
<path d="M27.9616 52.2084L31.2654 52.622C31.2654 52.622 32.1518 30.1227 34.0858 23.2571C34.4887 22.0164 35.6974 17.9632 35.6974 17.9632L36.9061 20.6102C36.9061 20.6102 38.7595 33.5141 39.4847 33.5969C40.1293 33.6796 40.9352 35.3339 41.0157 34.7549C41.0157 34.1759 41.9021 34.3413 42.4662 34.2586C43.0303 34.2586 44.6419 30.3709 44.9642 27.2276C45.2865 24.0843 48.671 17.6323 48.671 17.6323C48.671 17.6323 48.9127 12.3384 48.671 16.0607C48.4292 19.783 48.5098 44.102 47.6234 47.2453C46.8176 50.3059 47.0593 51.5466 47.0593 51.5466C47.0593 51.5466 47.1399 53.1183 49.9603 51.7121C52.7806 50.3059 53.1029 46.17 53.1029 46.17C53.1029 46.17 54.8757 31.6116 55.1175 29.461C55.2786 27.3103 54.4728 23.6707 54.4728 23.6707L53.7476 23.1744C53.7476 23.1744 55.4398 17.5496 55.4398 12.8347C54.3116 9.27781 51.3301 7.45802 51.3301 7.45802C51.3301 7.45802 48.671 4.89376 47.5428 5.14192C47.3817 5.14192 47.4622 5.80366 47.4622 5.80366C47.1399 8.03704 44.239 18.8731 44.239 18.8731L42.305 22.8435L41.9827 24.2497C41.9827 24.2497 42.305 18.2113 41.741 12.6692C41.1769 7.12715 40.0488 8.53335 38.6789 6.79627C37.309 5.0592 35.5362 9.36053 33.844 9.93955C32.2324 10.6013 29.412 17.2187 28.9286 25.1596C28.6868 29.461 29.1703 31.1153 28.7674 38.8081C28.6868 39.8007 27.5587 40.7106 27.4781 41.6205C27.2363 46.749 28.1227 50.9676 27.9616 52.2084Z" fill="#7F7F7F"/>
<path d="M55.4402 0.675308H54.312V0.261719H57.0518V0.675308H55.9236V3.98402H55.4402V0.675308Z" fill="#7F7F7F"/>
<path d="M60.4361 2.32967C60.4361 1.83336 60.3555 1.17162 60.3555 0.675308C60.1944 1.0889 60.1138 1.5852 59.8721 2.08151L59.2274 3.90131H58.9051L58.341 2.08151C58.1799 1.5852 58.0187 1.0889 57.9381 0.59259C57.9381 1.0889 57.9381 1.66792 57.8575 2.24695L57.7769 3.81859H57.2935L57.5352 0.261719H58.0993L58.7439 2.08151C58.9051 2.57782 58.9857 2.99141 59.1468 3.32228C59.2274 2.90869 59.3886 2.4951 59.5497 2.08151L60.1944 0.261719H60.7585L61.0002 3.98402H60.5167L60.4361 2.32967Z" fill="#7F7F7F"/>
</g>
<defs>
<clipPath id="clip0">
<rect width="61" height="56" fill="white" transform="translate(0 0.261719)"/>
</clipPath>
</defs>
</svg>
