<svg width="65" height="60" viewBox="0 0 65 60" fill="none" xmlns="http://www.w3.org/2000/svg">
<g clip-path="url(#clip0)">
<path d="M64.6184 13.1503C64.6184 12.9593 64.3321 12.8639 64.1412 12.9593C60.8005 15.0597 56.219 14.105 52.6875 14.8687C50.4922 15.2506 50.5876 18.4011 50.7785 19.9286C50.7785 20.1195 51.0649 20.215 51.1603 20.0241C52.6875 17.6373 60.1324 18.592 62.7095 17.8283C65.0957 16.8736 64.8093 14.4868 64.6184 13.1503Z" fill="#7F7F7F"/>
<path d="M28.6345 24.7978C29.0163 26.8026 31.0207 27.28 31.0207 27.28C31.0207 27.28 31.2116 26.9936 31.2116 26.5162C31.307 25.8479 33.6932 20.1198 35.1249 18.6878C37.1293 16.5874 32.9296 15.6327 32.4524 15.8237C32.166 16.0146 28.3481 22.0292 28.6345 24.7978Z" fill="#7F7F7F"/>
<path d="M39.7065 20.9789C38.3702 24.7022 36.6522 29.3802 35.2204 33.7718C34.1705 34.8219 26.9165 41.9821 26.0574 43.7006C25.962 43.1278 29.3981 31.4805 29.9708 30.5258C30.5435 29.5711 28.1573 27.0889 27.0119 27.0889C24.9121 33.3899 22.5259 37.877 22.5259 37.877C22.5259 37.877 23.194 38.8317 23.7667 38.6407C23.7667 38.6407 22.2395 43.7006 23.0986 45.7054C23.6713 47.042 25.2939 47.7103 26.1529 47.9967C26.5347 48.0922 26.9165 47.9967 27.1074 47.6148C27.9664 46.1828 31.3071 41.1229 33.7887 37.9724C32.2616 42.8414 31.4025 46.8511 32.0707 47.8058C33.0251 49.3333 33.6933 49.5242 35.125 49.6197C35.2204 47.042 36.6522 42.1731 38.3702 36.9223C39.2293 41.4093 44.0971 45.8964 46.5787 47.042C48.2014 46.8511 49.824 45.2281 49.7285 43.6051C51.2557 45.61 53.451 44.9417 54.5964 44.1779C56.9826 42.4595 58.6052 38.5452 59.7505 34.4401C60.8959 30.3349 61.2777 28.2346 61.1823 27.3753C61.0868 26.5161 59.1779 26.6116 58.0325 27.3753C56.6962 28.2346 57.6507 28.1391 57.7461 28.521C57.8416 28.9028 55.4554 42.9368 52.7829 41.9821C50.1103 41.0274 54.9782 25.5614 55.9326 24.7977C56.4099 24.4158 56.6008 24.4158 56.8871 25.1795C57.5552 25.466 59.5597 25.7524 60.5141 24.3203C60.5141 24.3203 58.6052 20.788 54.9782 21.5517C53.451 21.8381 48.0105 29.4757 48.2968 37.9724C48.3923 40.0728 48.6786 41.6957 49.1558 42.7459C43.3335 42.364 41.2337 36.254 40.5655 33.5808C44.7652 33.1035 49.824 25.6569 49.824 25.6569C49.824 25.6569 50.0149 24.8931 48.6786 24.8931C46.5787 24.8931 45.5288 25.5614 45.5288 25.5614C45.5288 25.5614 43.429 30.3349 40.3746 31.7669C43.3335 23.4611 46.3878 15.6326 46.3878 14.9643C46.3878 14.2006 46.1015 13.5323 45.3379 12.864C44.7652 12.4821 42.9517 11.432 42.8563 12.2912C42.8563 12.3867 42.8563 12.3867 42.8563 12.4821C42.379 13.5323 39.611 19.7378 38.9429 20.6925C38.3702 20.8834 39.0384 20.9789 39.7065 20.9789ZM42.379 13.7232L42.5699 12.7685C42.4745 13.1504 42.379 13.5323 42.379 13.7232Z" fill="#7F7F7F"/>
<path d="M14.7947 49.3333C15.4628 47.233 17.0854 41.8867 17.6581 39.309C18.1353 37.3042 18.5171 35.2993 18.8989 33.199C22.6214 28.712 26.5347 23.2702 28.2528 18.9741C31.3071 11.5275 33.9797 4.08089 30.2572 0.643998C29.6845 0.166652 28.9209 0.0711823 28.2528 0.262121L26.9165 0.834936C26.5347 0.930406 26.2484 1.21681 26.0575 1.50322C24.7212 3.22167 20.9988 7.70872 15.94 28.1391C13.0766 31.3851 9.06778 33.6764 6.20435 34.2492C6.20435 34.2492 7.63606 42.4595 10.8813 41.0275C11.454 40.7411 12.313 40.0728 13.2675 39.1181C13.172 39.9773 11.6449 45.2281 11.1676 47.0421C9.73592 46.3738 7.15882 46.1828 4.67718 47.1375C2.48188 47.9967 0.382025 49.8107 -0.0952148 52.2929C0.000233039 53.9158 0.191129 57.6391 4.39084 58.1165C9.73592 58.3074 12.4085 54.5841 13.6493 52.1974C32.4525 67.2815 57.8416 53.7249 61.6596 51.8155C63.2822 50.479 65.4775 47.233 64.7139 40.7411C42.7609 58.4984 22.1441 54.2977 14.7947 49.3333ZM21.2851 20.1197C23.7668 11.8139 27.5847 3.1262 27.7756 3.03073C28.4437 3.69901 28.2528 5.99028 28.2528 6.46762C28.1574 9.52264 24.7212 16.8738 20.2352 24.034C20.5215 22.7929 21.0942 21.0744 21.2851 20.1197ZM2.57733 53.2476C2.19553 51.5291 4.10449 49.8107 5.53621 49.3333C6.96793 48.856 9.35413 48.7605 10.5949 49.6197C10.1177 52.3883 4.39084 55.6343 2.57733 53.2476Z" fill="#7F7F7F"/>
</g>
<defs>
<clipPath id="clip0">
<rect width="65" height="59" fill="white" transform="translate(0 0.261719)"/>
</clipPath>
</defs>
</svg>
