<svg xmlns="http://www.w3.org/2000/svg" xmlns:xlink="http://www.w3.org/1999/xlink" viewBox="0 0 20 21.04"><defs><style>.cls-1{fill:none;}.cls-2{clip-path:url(#clip-path);}.cls-3{fill:url(#Безымянный_градиент_3);}.cls-4{fill:url(#Безымянный_градиент_3-2);}.cls-5{fill:url(#Безымянный_градиент_3-3);}</style><clipPath id="clip-path" transform="translate(0 0)"><rect class="cls-1" width="20" height="21.04"/></clipPath><linearGradient id="Безымянный_градиент_3" x1="10" y1="49.82" x2="10" y2="70.64" gradientTransform="matrix(1, 0, 0, -1, 0, 70.81)" gradientUnits="userSpaceOnUse"><stop offset="0" stop-color="#e09b3d"/><stop offset="0.3" stop-color="#c74c4d"/><stop offset="0.6" stop-color="#c21975"/><stop offset="1" stop-color="#7024c4"/></linearGradient><linearGradient id="Безымянный_градиент_3-2" x1="10" y1="49.82" x2="10" y2="70.64" xlink:href="#Безымянный_градиент_3"/><linearGradient id="Безымянный_градиент_3-3" x1="4.82" y1="49.83" x2="4.82" y2="70.64" xlink:href="#Безымянный_градиент_3"/></defs><title>instagram-color</title><g id="Слой_2" data-name="Слой 2"><g id="Слой_1-2" data-name="Слой 1"><g class="cls-2"><path class="cls-3" d="M6,0H14a6.12,6.12,0,0,1,6,6.27v8.51A6.12,6.12,0,0,1,14,21H6a6.13,6.13,0,0,1-6-6.27V6.27A6.13,6.13,0,0,1,6,0ZM2,14.78a4.06,4.06,0,0,0,4,4.15H14A4.06,4.06,0,0,0,18,14.78V6.27A4.06,4.06,0,0,0,14,2.12H6A4.06,4.06,0,0,0,2,6.27Z" transform="translate(0 0)"/><path class="cls-4" d="M10,5.08a5.32,5.32,0,0,1,5.18,5.44A5.32,5.32,0,0,1,10,16a5.32,5.32,0,0,1-5.17-5.44A5.32,5.32,0,0,1,10,5.08Zm0,8.77a3.25,3.25,0,0,0,3.17-3.33A3.25,3.25,0,0,0,10,7.19a3.25,3.25,0,0,0-3.16,3.33A3.25,3.25,0,0,0,10,13.85Z" transform="translate(0 0)"/><path class="cls-5" d="M4.82,6.42a1.27,1.27,0,0,1-1.24-1.3,1.27,1.27,0,0,1,1.24-1.3,1.27,1.27,0,0,1,1.24,1.3A1.27,1.27,0,0,1,4.82,6.42Z" transform="translate(0 0)"/></g></g></g></svg>