<svg width="19" height="22" viewBox="0 0 19 22" fill="none" xmlns="http://www.w3.org/2000/svg">
<g clip-path="url(#clip0)">
<path d="M13.7581 0.382812H5.24186C2.34689 0.382812 0 2.98212 0 6.18844V15.6206C0 18.827 2.34689 21.4263 5.24186 21.4263H13.7581C16.6531 21.4263 19 18.827 19 15.6206V6.18844C19 2.98212 16.6531 0.382812 13.7581 0.382812ZM17.3136 15.6206C17.3136 17.7997 15.7115 19.5585 13.7581 19.5585H5.24186C3.27441 19.5585 1.68639 17.7841 1.68639 15.6206V6.18844C1.68639 4.02495 3.28846 2.25058 5.24186 2.25058H13.7581C15.7256 2.25058 17.3136 4.02495 17.3136 6.18844V15.6206Z" fill="#495057"/>
<path d="M9.4998 5.4873C6.80158 5.4873 4.59521 7.9154 4.59521 10.9038C4.59521 13.8922 6.78752 16.3359 9.4998 16.3359C12.198 16.3359 14.4044 13.9078 14.4044 10.9038C14.4044 7.9154 12.198 5.4873 9.4998 5.4873ZM9.4998 14.4681C7.72909 14.4681 6.28161 12.8805 6.28161 10.9194C6.29566 8.94267 7.72909 7.35507 9.4998 7.35507C11.2705 7.35507 12.718 8.94267 12.718 10.9038C12.718 12.865 11.2705 14.4681 9.4998 14.4681Z" fill="#495057"/>
<path d="M4.3988 3.89941C4.07557 3.89941 3.75235 4.03947 3.52749 4.30403C3.30264 4.55303 3.16211 4.91096 3.16211 5.26889C3.16211 5.62682 3.28859 5.98475 3.52749 6.23374C3.75235 6.48273 4.07557 6.63836 4.3988 6.63836C4.72203 6.63836 5.04525 6.4983 5.2701 6.23374C5.49496 5.98475 5.63549 5.62682 5.63549 5.26889C5.63549 4.91096 5.50901 4.55303 5.2701 4.30403C5.04525 4.03947 4.73608 3.89941 4.3988 3.89941Z" fill="#495057"/>
</g>
<defs>
<clipPath id="clip0">
<rect width="19" height="21.0435" fill="white" transform="matrix(-1 0 0 1 19 0.382812)"/>
</clipPath>
</defs>
</svg>
